# xmcd CD database file
#
# Track frame offsets:
#	150
#	23630
#	44528
#	64058
#	87391
#	109166
#	130389
#	151882
#	170060
#	186007
#	206711
#
# Disc length: 3005 seconds
#
# Revision: 1
# Processed by: cddbd v1.5.2PL0 Copyright (c) Steve Scherf et al.
# Submitted via: CDex 1.51
#
DISCID=980bbb0b
DTITLE=David Arkenstone - Celtic Christmas
DYEAR=2010
DGENRE=New Age
TTITLE0=I Saw Three Ships
TTITLE1=Good King Wenceslas
TTITLE2=God Rest Ye, Merry Gentlemen
TTITLE3=The First Noel
TTITLE4=Christmas Day In The Morning
TTITLE5=We Three Kings
TTITLE6=The Wexford Carol
TTITLE7=Wassailing
TTITLE8=Patapan
TTITLE9=What Child Is This?
TTITLE10=Bottom Of The Punch Bowl
EXTD=YEAR: 2010
EXTT0=
EXTT1=
EXTT2=
EXTT3=
EXTT4=
EXTT5=
EXTT6=
EXTT7=
EXTT8=
EXTT9=
EXTT10=
PLAYORDER=
